# xmcd
#
# Track frame offsets:
#	150
#	19845
#	32692
#	47287
#	62922
#	77302
#	89547
#	102152
#	115645
#	130995
#	141077
#	155255
#	167080
#
# Disc length: 2467 seconds
#
# Revision: 0
# Processed by: cddbd v1.5.2PL0 Copyright (c) Steve Scherf et al.
# Submitted via: audiograbber 1.83.01
#
DISCID=9909a10d
DTITLE=Paul Kelly With Uncle Bill - Smoke
DYEAR=2000
DGENRE=Bluegrass
TTITLE0=Our Sunshine
TTITLE1=You Can't Take It With You
TTITLE2=Until Death Do Them Part
TTITLE3=I Can't Believe We Were Married
TTITLE4=I Don't Remember A Thing
TTITLE5=Teach Me Tonight
TTITLE6=Sydney From A 747
TTITLE7=Night After Night
TTITLE8=Whistling Bird
TTITLE9=Stories Of Me
TTITLE10=Taught By Experts
TTITLE11=Gathering Storm
TTITLE12=Shy Before You Lord
EXTD=YEAR: 2000
EXTT0=
EXTT1=
EXTT2=
EXTT3=
EXTT4=
EXTT5=
EXTT6=
EXTT7=
EXTT8=
EXTT9=
EXTT10=
EXTT11=
EXTT12=
PLAYORDER=
